<svg width="40" height="36" viewBox="0 0 40 36" fill="none" xmlns="http://www.w3.org/2000/svg">
<path d="M7.0167 19.183C7.01457 19.1714 7.01264 19.1598 7.0109 19.1482L4.57067 4.5068C4.32958 3.06024 3.07801 2 1.61149 2H1C0.447715 2 0 1.55228 0 1C0 0.447715 0.447715 0 1 0H1.61149C3.99513 0 6.03805 1.68058 6.51051 4H39C39.6644 4 40.144 4.6359 39.9615 5.27472L35.9615 19.2747C35.8389 19.704 35.4465 20 35 20H9.18046L9.42933 21.4932C9.67042 22.9398 10.922 24 12.3885 24H35C35.5523 24 36 24.4477 36 25C36 25.5523 35.5523 26 35 26H12.3885C9.94431 26 7.85836 24.2329 7.45654 21.822L7.0167 19.183V19.183ZM6.84713 6L8.84713 18H34.2457L37.6743 6H6.84713ZM12 36C9.79086 36 8 34.2091 8 32C8 29.7909 9.79086 28 12 28C14.2091 28 16 29.7909 16 32C16 34.2091 14.2091 36 12 36ZM12 34C13.1046 34 14 33.1046 14 32C14 30.8954 13.1046 30 12 30C10.8954 30 10 30.8954 10 32C10 33.1046 10.8954 34 12 34ZM30 36C27.7909 36 26 34.2091 26 32C26 29.7909 27.7909 28 30 28C32.2091 28 34 29.7909 34 32C34 34.2091 32.2091 36 30 36ZM30 34C31.1046 34 32 33.1046 32 32C32 30.8954 31.1046 30 30 30C28.8954 30 28 30.8954 28 32C28 33.1046 28.8954 34 30 34Z" fill="#292929"/>
</svg>
