<svg width="25" height="25" viewBox="0 0 25 25" fill="none" xmlns="http://www.w3.org/2000/svg">
<path d="M23.5 8.43717V21.1667C23.5 22.4558 22.4558 23.5 21.1667 23.5H4.83333C3.54417 23.5 2.5 22.4558 2.5 21.1667V8.43717C2.5 8.12217 2.56417 7.8095 2.68783 7.52017L4.22783 3.91633C4.59533 3.05767 5.43883 2.5 6.37333 2.5H19.6267C20.5612 2.5 21.4047 3.05767 21.7722 3.91633L23.3122 7.52017C23.4358 7.81067 23.5 8.12217 23.5 8.43717Z" stroke="#292929" stroke-width="1.2" stroke-linecap="round" stroke-linejoin="round"/>
<path d="M21.1667 6.10383V18.8333C21.1667 20.1225 20.1225 21.1667 18.8334 21.1667H2.50002C1.21085 21.1667 0.166687 20.1225 0.166687 18.8333V6.10383C0.166687 5.78883 0.230854 5.47616 0.35452 5.18683L1.89452 1.583C2.26202 0.724331 3.10552 0.166664 4.04002 0.166664H17.2934C18.2279 0.166664 19.0714 0.724331 19.4389 1.583L20.9789 5.18683C21.1025 5.47733 21.1667 5.78883 21.1667 6.10383Z" fill="#FBE8BB"/>
<path d="M15.3333 2.49992L16.4999 8.33325V12.0957C16.4999 12.5951 16.0508 12.9999 15.4966 12.9999H10.5033C9.94911 12.9999 9.49994 12.5951 9.49994 12.0957V8.33325L10.6666 2.49992" fill="white"/>
<path d="M15.3333 2.49992L16.4999 8.33325V12.0957C16.4999 12.5951 16.0508 12.9999 15.4966 12.9999H10.5033C9.94911 12.9999 9.49994 12.5951 9.49994 12.0957V8.33325L10.6666 2.49992" stroke="#292929" stroke-width="1.2" stroke-linecap="round" stroke-linejoin="round"/>
<path d="M23.5 8.43717V21.1667C23.5 22.4558 22.4558 23.5 21.1667 23.5H4.83333C3.54417 23.5 2.5 22.4558 2.5 21.1667V8.43717C2.5 8.12217 2.56417 7.8095 2.68783 7.52017L4.22783 3.91633C4.59533 3.05767 5.43883 2.5 6.37333 2.5H19.6267C20.5612 2.5 21.4047 3.05767 21.7722 3.91633L23.3122 7.52017C23.4358 7.81067 23.5 8.12217 23.5 8.43717Z" stroke="#292929" stroke-width="1.2" stroke-linecap="round" stroke-linejoin="round"/>
<path d="M2.5 8.33333H23.4883" stroke="#292929" stroke-width="1.2" stroke-linecap="round" stroke-linejoin="round"/>
<path d="M6 18.8333H8.33333" stroke="#FD9339" stroke-width="1.2" stroke-linecap="round" stroke-linejoin="round"/>
</svg>
